# xmcd
#
# Track frame offsets:
#	150
#	22592
#	38817
#	50492
#	71477
#	88100
#	103330
#	116250
#	130275
#	151802
#	166412
#	181102
#	196147
#	214297
#	223330
#	241995
#	257377
#	275780
#
# Disc length: 3944 seconds
#
# Revision: 2
# Processed by: cddbd v1.5.2PL0 Copyright (c) Steve Scherf et al.
# Submitted via: EasyCDDAExtractor 16.0.8.2
#
DISCID=fc0f6612
DTITLE=Αηδονίδης Χρόνης - Η Θράκη των Ελλήνων
DYEAR=2012
DGENRE=Παραδοσιακή
TTITLE0=Αηδονίδης Χρόνης - Σε τούτ' την τάβλα πού 'μαστε [καθιστικό]
TTITLE1=Αηδονίδης Χρόνης - Στ' αργαστηρούδι μ' δούλευα [ξεσυρτο]
TTITLE2=Αηδονίδης Χρόνης - Χατζούδα Δέσπω [συρτό]
TTITLE3=Αηδονίδης Χρόνης - Τού Μαβή αφέντη [αργό Ανατ. Θράκης]
TTITLE4=Αηδονίδης Χρόνης - Κείτεται ξένος άρρωστος [ζωναράδικο Β. Θράκης]
TTITLE5=Αηδονίδης Χρόνης - Δώδεκα ευζωνάκια [συρτό Θράκης κ Μακεδονίας]
TTITLE6=Άνευ ερμηνευτού - Γίκνα [χορός Δυτ. Θράκης]
TTITLE7=Αηδονίδης Χρόνης - Δυό πουλάκια τα καϋμένα [συγκαθιστό Δ. Θράκης]
TTITLE8=Αηδονίδης Χρόνης - Ότα μ' εγέννας μάννα μου [αργό συρτό Αν. Θράκης]
TTITLE9=Αηδονίδης Χρόνης - Σεις ψηλές λιγνές κοπέλες [μπαϊντούσκα Β. Θράκης]
TTITLE10=Αηδονίδης Χρόνης - Ράφτρα ήμαν' κι έραφτα [μαντηλάτος Β. Θράκης]
TTITLE11=Αηδονίδης Χρόνης - Ποιος είδε πράσινο δεντρί [παραλ. Σαράντα Εκκλησιώ
TTITLE11=ν]
TTITLE12=Αηδονίδης Χρόνης - Ν' ήλιους πααίν' στη μάννα σου [συρτό Δ. Θράκης]
TTITLE13=Άνευ ερμηνευτού - Τροΐρο [χορός Β. Θράκης]
TTITLE14=Αηδονίδης Χρόνης - Δάφνη και μηλιά [καθιστικό Β. Θράκης]
TTITLE15=Αηδονίδης Χρόνης - Ώρα καλή πουλάκι μου [κασάπικο Δυτ. Θράκης]
TTITLE16=Αηδονίδης Χρόνης - Σ' όσους γάμους κι αν επήγα [ζωναράδικο Β. Θράκης]
TTITLE17=Αηδονίδης Χρόνης - Το νερατζολέμονο [καρσιλαμάς Αν. Θράκης]
EXTD=
EXTT0=
EXTT1=
EXTT2=
EXTT3=
EXTT4=
EXTT5=
EXTT6=
EXTT7=
EXTT8=
EXTT9=
EXTT10=
EXTT11=
EXTT12=
EXTT13=
EXTT14=
EXTT15=
EXTT16=
EXTT17=
PLAYORDER=
